<svg width="32" height="32" viewBox="0 0 28 28" fill="none" xmlns="http://www.w3.org/2000/svg">
<path d="M23.3333 14V20.5C23.3333 22.3856 23.3333 23.3284 22.7476 23.9142C22.1618 24.5 21.219 24.5 19.3333 24.5H7.58333C5.9725 24.5 4.66667 23.1942 4.66667 21.5833V21.5833C4.66667 19.9725 5.97251 18.6667 7.58334 18.6667H19.3333C21.219 18.6667 22.1618 18.6667 22.7476 18.0809C23.3333 17.4951 23.3333 16.5523 23.3333 14.6667V7.5C23.3333 5.61438 23.3333 4.67157 22.7476 4.08579C22.1618 3.5 21.219 3.5 19.3333 3.5H8.66667C6.78105 3.5 5.83824 3.5 5.25246 4.08579C4.66667 4.67157 4.66667 5.61438 4.66667 7.5V21.5833" stroke="#33363F" stroke-width="2"/>
<path d="M10.5 9.33333L17.5 9.33333" stroke="#33363F" stroke-width="2" stroke-linecap="round"/>
</svg>
