<svg width="32" height="32" viewBox="0 0 32 32" fill="none" xmlns="http://www.w3.org/2000/svg">
<path d="M6.66667 17.0128C6.66667 15.2025 6.66667 14.2973 7.03262 13.5016C7.39857 12.706 8.08583 12.1169 9.46034 10.9388L10.7937 9.7959C13.2781 7.6664 14.5203 6.60164 16 6.60164C17.4797 6.60164 18.7219 7.6664 21.2063 9.7959L22.5397 10.9388C23.9142 12.1169 24.6014 12.706 24.9674 13.5016C25.3333 14.2973 25.3333 15.2025 25.3333 17.0128V22.6667C25.3333 25.1808 25.3333 26.4379 24.5523 27.219C23.7712 28 22.5142 28 20 28H12C9.48585 28 8.22877 28 7.44772 27.219C6.66667 26.4379 6.66667 25.1808 6.66667 22.6667V17.0128Z" stroke="#33363F" stroke-width="2"/>
<path d="M19.3333 28V21C19.3333 20.4477 18.8856 20 18.3333 20H13.6667C13.1144 20 12.6667 20.4477 12.6667 21V28" stroke="#33363F" stroke-width="2" stroke-linecap="round" stroke-linejoin="round"/>
</svg>
