<svg width="32" height="32" viewBox="0 0 33 33" fill="none" xmlns="http://www.w3.org/2000/svg">
<path d="M22.6875 28.1875H10.3125" stroke="#33363F" stroke-width="2" stroke-linecap="round"/>
<path d="M17.5 25.4375C17.5 25.9898 17.0523 26.4375 16.5 26.4375C15.9477 26.4375 15.5 25.9898 15.5 25.4375H17.5ZM15.5 25.4375V22H17.5V25.4375H15.5Z" fill="#33363F"/>
<path d="M14.4375 13.0625H18.5625" stroke="#33363F" stroke-width="2" stroke-linecap="round"/>
<path d="M7.5625 19.9375C7.5625 19.9375 4.8125 17.875 4.8125 14.4375C4.8125 13.3851 4.8125 12.4616 4.8125 11.6867C4.8125 10.9895 4.8125 10.6408 4.89862 10.3569C5.09252 9.71773 5.59273 9.21752 6.23193 9.02362C6.51583 8.9375 6.86472 8.9375 7.5625 8.9375V8.9375C8.26028 8.9375 8.60917 8.9375 8.89307 9.02362C9.53227 9.21752 10.0325 9.71773 10.2264 10.3569C10.3125 10.6408 10.3125 10.9897 10.3125 11.6875V13.0625" stroke="#33363F" stroke-width="2" stroke-linecap="round"/>
<path d="M25.4375 19.9375C25.4375 19.9375 28.1875 17.875 28.1875 14.4375C28.1875 13.3851 28.1875 12.4616 28.1875 11.6867C28.1875 10.9895 28.1875 10.6408 28.1014 10.3569C27.9075 9.71773 27.4073 9.21752 26.7681 9.02362C26.4842 8.9375 26.1353 8.9375 25.4375 8.9375V8.9375C24.7397 8.9375 24.3908 8.9375 24.1069 9.02362C23.4677 9.21752 22.9675 9.71773 22.7736 10.3569C22.6875 10.6408 22.6875 10.9897 22.6875 11.6875V13.0625" stroke="#33363F" stroke-width="2" stroke-linecap="round"/>
<path d="M22.6875 16.4218V9.5625C22.6875 8.45793 21.7921 7.5625 20.6875 7.5625H12.3125C11.2079 7.5625 10.3125 8.45793 10.3125 9.5625V16.4218C10.3125 17.7592 10.9809 19.0081 12.0937 19.75L15.9453 22.3177C16.2812 22.5416 16.7188 22.5416 17.0547 22.3177L20.9063 19.75C22.0191 19.0081 22.6875 17.7592 22.6875 16.4218Z" stroke="#33363F" stroke-width="2"/>
</svg>
